<svg width="369" height="348" viewBox="0 0 369 348" fill="none" xmlns="http://www.w3.org/2000/svg">
<mask id="mask0_187_3" style="mask-type:alpha" maskUnits="userSpaceOnUse" x="168" y="116" width="269" height="269">
<circle cx="302.229" cy="250.23" r="134" transform="rotate(-109.987 302.229 250.23)" fill="#C4C4C4"/>
</mask>
<g mask="url(#mask0_187_3)">
<line x1="26.9984" y1="299.3" x2="372.847" y2="-34.9901" stroke="#2E2E30" stroke-width="2"/>
<line x1="43.6781" y1="316.556" x2="389.527" y2="-17.7337" stroke="#2E2E30" stroke-width="2"/>
<line x1="60.3578" y1="333.813" x2="406.207" y2="-0.476889" stroke="#2E2E30" stroke-width="2"/>
<line x1="77.0376" y1="351.069" x2="422.886" y2="16.7795" stroke="#2E2E30" stroke-width="2"/>
<line x1="93.7173" y1="368.325" x2="439.566" y2="34.0358" stroke="#2E2E30" stroke-width="2"/>
<line x1="110.397" y1="385.582" x2="456.246" y2="51.2926" stroke="#2E2E30" stroke-width="2"/>
<line x1="127.077" y1="402.839" x2="472.926" y2="68.549" stroke="#2E2E30" stroke-width="2"/>
<line x1="143.756" y1="420.095" x2="489.605" y2="85.8053" stroke="#2E2E30" stroke-width="2"/>
<line x1="160.436" y1="437.351" x2="506.285" y2="103.062" stroke="#2E2E30" stroke-width="2"/>
<line x1="177.116" y1="454.608" x2="522.965" y2="120.319" stroke="#2E2E30" stroke-width="2"/>
<line x1="193.796" y1="471.864" x2="539.645" y2="137.575" stroke="#2E2E30" stroke-width="2"/>
<line x1="210.475" y1="489.121" x2="556.324" y2="154.831" stroke="#2E2E30" stroke-width="2"/>
<line x1="227.155" y1="506.378" x2="573.004" y2="172.088" stroke="#2E2E30" stroke-width="2"/>
</g>
<path d="M40.7741 193.75C40.4408 191.465 42.7063 189.676 44.852 190.53L117.27 219.35C119.416 220.204 119.833 223.06 118.02 224.492L56.8522 272.797C55.0398 274.229 52.3576 273.161 52.0243 270.876L40.7741 193.75Z" fill="#2E2E30"/>
<path d="M105.647 43.7472L120.344 58.4442C120.888 58.9885 120.639 59.9179 119.895 60.1172L99.8189 65.4966C99.0753 65.6959 98.3949 65.0155 98.5942 64.2719L103.974 44.1955C104.173 43.4519 105.102 43.2029 105.647 43.7472Z" stroke="#2E2E30" stroke-width="4"/>
</svg>
