<svg width="60" height="44" viewBox="0 0 60 44" fill="none" xmlns="http://www.w3.org/2000/svg">
<path d="M22.4664 19.7798C25.8744 22.2915 27.5785 25.79 27.5785 30.2752C27.5785 34.3119 26.278 37.631 23.6771 40.2324C21.0762 42.7441 17.7578 44 13.722 44C9.86547 44 6.59193 42.789 3.90135 40.367C1.30045 37.945 0 34.6259 0 30.4098C0 26.9113 1.21076 23.3231 3.63229 19.6453L16.6816 0H30.6726L22.4664 19.7798ZM51.7937 19.7798C55.2018 22.2915 56.9058 25.79 56.9058 30.2752C56.9058 34.3119 55.6054 37.631 53.0045 40.2324C50.4036 42.7441 47.0852 44 43.0493 44C39.1928 44 35.9193 42.789 33.2287 40.367C30.6278 37.945 29.3274 34.6259 29.3274 30.4098C29.3274 26.9113 30.5381 23.3231 32.9596 19.6453L46.009 0H60L51.7937 19.7798Z" fill="#F50D32"/>
</svg>
